<svg xmlns="http://www.w3.org/2000/svg" xmlns:xlink="http://www.w3.org/1999/xlink" viewBox="0 0 40 50" version="1.1" x="0px" y="0px"><title>032-eat-restauratn-food-fork-knife</title><desc>Created with Sketch.</desc><g stroke="none" stroke-width="1" fill="none" fill-rule="evenodd"><g transform="translate(-120.000000, -280.000000)" fill="#000000"><g transform="translate(42.000000, 202.000000)"><g transform="translate(80.000000, 80.000000)"><path d="M18,36 C27.9411255,36 36,27.9411255 36,18 C36,8.0588745 27.9411255,0 18,0 C8.0588745,0 0,8.0588745 0,18 C0,27.9411255 8.0588745,36 18,36 Z M18,6.49100518 C18,6.21983051 18.2319336,6 18.5,6 C18.7761424,6 19,6.22241849 19,6.50756836 L19,11.4931638 C19.0014225,11.5908341 18.9743045,11.689931 18.9160251,11.7773501 L17,14.6513878 L17,28.4991699 C17,29.3280555 16.3342028,30 15.5,30 C14.6715729,30 14,29.3274305 14,28.4991699 L14,14.6513878 L12.0839749,11.7773501 C12.0256955,11.689931 11.9985775,11.5908341 12,11.4931638 L12,6.50756836 C12,6.2272461 12.2319336,6 12.5,6 C12.7761424,6 13,6.22788048 13,6.49100518 L13,10 C13,10.5522847 13.4477153,11 14,11 C14.5522847,11 15,10.5522847 15,10 L15,6.49769878 C15,6.22282734 15.2319336,6 15.5,6 C15.7761424,6 16,6.21484375 16,6.49769878 L16,10 C16,10.5522847 16.4477153,11 17,11 C17.5522847,11 18,10.5522847 18,10 L18,6.49100518 Z M21,6.33333333 L21,28.5015896 C21,29.3291388 21.6657972,30 22.5,30 C23.3284271,30 24,29.328344 24,28.502899 L24,20 L25.4953156,20 C25.7740451,20 26,19.785965 26,19.4953156 L26,18 C26,18 26.1934814,9.19299324 21,6.33333333 Z"/></g></g></g></g><text x="0" y="55" fill="#000000" font-size="5px" font-weight="bold" font-family="'Helvetica Neue', Helvetica, Arial-Unicode, Arial, Sans-serif">Created by Pham Thi Dieu Linh</text><text x="0" y="60" fill="#000000" font-size="5px" font-weight="bold" font-family="'Helvetica Neue', Helvetica, Arial-Unicode, Arial, Sans-serif">from the Noun Project</text></svg>